<svg width="320" height="315" viewBox="0 0 427 422" fill="none" xmlns="http://www.w3.org/2000/svg">
<path d="M144.197 207H141.089V196.864H144.533C146.927 196.864 147.599 197.956 147.599 199.342C147.599 200.742 146.661 201.456 145.583 201.708V201.75C147.235 201.946 147.977 202.842 147.977 204.242C147.977 206.314 146.395 207 144.197 207ZM142.727 198.11V201.232H143.651C144.715 201.232 145.961 200.952 145.961 199.58C145.961 198.18 145.093 198.11 143.581 198.11H142.727ZM142.727 202.464V205.754H143.931C145.275 205.754 146.255 205.53 146.255 204.13C146.255 202.632 145.079 202.464 143.721 202.464H142.727ZM157.54 207H151.296V196.864H157.33V198.194H152.934V201.218H157.036V202.534H152.934V205.67H157.54V207ZM165.172 207H163.52V203.22L160.146 196.864H161.91L164.304 201.652H164.374L166.726 196.864H168.392L165.172 203.178V207ZM174.175 207.168C171.207 207.168 170.577 204.984 170.577 201.946C170.577 198.936 171.403 196.682 174.329 196.682C177.283 196.682 177.843 198.936 177.843 201.75C177.843 205.04 177.059 207.168 174.175 207.168ZM174.203 205.852C175.743 205.852 176.149 204.648 176.149 201.876C176.149 199.3 175.799 198.012 174.287 198.012C172.719 198.012 172.285 199.314 172.285 201.932C172.285 204.676 172.663 205.852 174.203 205.852ZM182.087 207H180.673V196.864H182.577L186.175 204.564H186.231V196.864H187.617V207H185.881L182.129 199.076H182.087V207ZM193.247 207H190.755V196.864H193.485C196.467 196.864 197.699 198.754 197.699 201.778C197.699 204.886 196.341 207 193.247 207ZM192.393 198.152V205.712H193.233C195.207 205.712 196.019 204.298 196.019 201.932C196.019 199.034 195.067 198.152 193.359 198.152H192.393ZM212.36 207H210.736V196.864H214.18C216.728 196.864 217.372 198.446 217.372 199.86C217.372 201.372 216.826 202.478 215.552 202.968L217.806 207H216.028L214.04 203.276H212.36V207ZM212.36 198.166V202.002H213.69C214.754 202.002 215.692 201.68 215.692 199.986C215.692 198.446 214.866 198.166 213.452 198.166H212.36ZM227.132 207H220.888V196.864H226.922V198.194H222.526V201.218H226.628V202.534H222.526V205.67H227.132V207ZM237.885 207H236.093L235.309 204.172H232.271L231.501 207H229.821L232.719 196.864H234.819L237.885 207ZM233.741 198.348L232.537 202.856H235.015L233.783 198.348H233.741ZM247.407 207H240.827V196.864H242.465V205.642H247.407V207ZM256.831 207H250.643V205.754H252.925V198.11H250.643V196.864H256.831V198.11H254.563V205.754H256.831V207ZM264.504 207H262.866V198.222H259.87V196.864H267.486V198.222H264.504V207ZM274.53 207H272.878V203.22L269.504 196.864H271.268L273.662 201.652H273.732L276.084 196.864H277.75L274.53 203.178V207Z" fill="#998AE9"/>
<rect x="110.5" y="0.5" width="198" height="421" rx="22.5" stroke="#998AE9"/>
</svg>
