<svg width="215" height="18" viewBox="0 0 215 18" fill="none" xmlns="http://www.w3.org/2000/svg">
<path d="M4.242 14.168C2.366 14.168 0.98 13.51 0.742 11.172L2.184 10.948C2.408 12.166 2.786 12.908 4.298 12.908C5.334 12.908 6.146 12.516 6.146 11.34C6.146 10.15 5.166 9.842 4.046 9.534C2.674 9.142 1.12 8.694 1.12 6.566C1.12 4.746 2.436 3.682 4.424 3.682C6.188 3.682 7.462 4.326 7.644 6.566L6.202 6.734C6.062 5.684 5.824 4.956 4.424 4.956C3.122 4.956 2.66 5.544 2.66 6.384C2.66 7.504 3.668 7.826 4.774 8.162C6.16 8.568 7.714 9.044 7.714 11.116C7.714 13.272 6.104 14.168 4.242 14.168ZM18.5516 14H12.3076V3.864H18.3416V5.194H13.9456V8.218H18.0476V9.534H13.9456V12.67H18.5516V14ZM29.5433 14H23.2993V3.864H29.3333V5.194H24.9373V8.218H29.0393V9.534H24.9373V12.67H29.5433V14ZM44.4286 14V3.864H46.5426L48.3346 8.946H48.3906L50.0426 3.864H52.1846V14H50.6866L50.7566 5.908L50.7006 5.894L48.9646 10.92H47.6906L45.8986 5.88L45.8286 5.894L45.9126 14H44.4286ZM59.2702 14.168C56.3022 14.168 55.6722 11.984 55.6722 8.946C55.6722 5.936 56.4982 3.682 59.4242 3.682C62.3782 3.682 62.9382 5.936 62.9382 8.75C62.9382 12.04 62.1542 14.168 59.2702 14.168ZM59.2982 12.852C60.8382 12.852 61.2442 11.648 61.2442 8.876C61.2442 6.3 60.8942 5.012 59.3822 5.012C57.8142 5.012 57.3802 6.314 57.3802 8.932C57.3802 11.676 57.7582 12.852 59.2982 12.852ZM68.6798 14H67.0558V3.864H70.4998C73.0478 3.864 73.6918 5.446 73.6918 6.86C73.6918 8.372 73.1458 9.478 71.8718 9.968L74.1258 14H72.3478L70.3598 10.276H68.6798V14ZM68.6798 5.166V9.002H70.0098C71.0738 9.002 72.0118 8.68 72.0118 6.986C72.0118 5.446 71.1858 5.166 69.7718 5.166H68.6798ZM84.5015 14H78.2575V3.864H84.2915V5.194H79.8955V8.218H83.9975V9.534H79.8955V12.67H84.5015V14Z" fill="#998AE9"/>
</svg>
